# xmcd CD database file
#
# Track frame offsets:
#	150
#	19125
#	32684
#	47392
#	67200
#	86310
#	103537
#	122873
#	144743
#	167902
#	179452
#	200475
#	221505
#
# Disc length: 3187 seconds
#
# Revision: 4
# Processed by: cddbd v1.4PL0 Copyright (c) Steve Scherf et al.
# Submitted via: Feurio! 1.63 - http://www.feurio.com
#
DISCID=b90c710d
DTITLE=Eddie Kirkland - The Complete Trix Recordings [CD2/2) - The Devil 
DTITLE=And Other Blue Demons
DYEAR=1999
DGENRE=Blues
TTITLE0=The Devil
TTITLE1=Got To Love My Baby
TTITLE2=Snake In The Grass
TTITLE3=Mother-In-Law
TTITLE4=Hard To Raise A Family Today
TTITLE5=Spank The Butterfly
TTITLE6=Rolling Stone Man
TTITLE7=I´m Going To Wait For You
TTITLE8=Pity On Me
TTITLE9=Georgia Woman
TTITLE10=Burnin´ Love
TTITLE11=Tell Me, Baby
TTITLE12=Mink Hollow Slider
EXTD=
EXTT0=
EXTT1=
EXTT2=
EXTT3=
EXTT4=
EXTT5=
EXTT6=
EXTT7=
EXTT8=
EXTT9=
EXTT10=
EXTT11=
EXTT12=
PLAYORDER=
